<svg viewBox="0 0 64 64" xmlns="http://www.w3.org/2000/svg"><circle cx="26" cy="32" fill="#e5efef" r="23"/><g fill="none"><path d="m6 3v2" stroke="#4c241d" stroke-linecap="round" stroke-linejoin="round" stroke-width="2"/><path d="m6 9v2" stroke="#4c241d" stroke-linecap="round" stroke-linejoin="round" stroke-width="2"/><path d="m2 7h2" stroke="#4c241d" stroke-linecap="round" stroke-linejoin="round" stroke-width="2"/><path d="m8 7h2" stroke="#4c241d" stroke-linecap="round" stroke-linejoin="round" stroke-width="2"/></g><path d="m7.082 20.667a1.069 1.069 0 1 1 -1.069-1.067 1.07 1.07 0 0 1 1.069 1.067z" fill="#4c241d"/><circle cx="49" cy="17" fill="#fff" r="7" stroke="#4c241d" stroke-linecap="round" stroke-linejoin="round" stroke-width="2"/><circle cx="22" cy="17" fill="#fff" r="7" stroke="#4c241d" stroke-linecap="round" stroke-linejoin="round" stroke-width="2"/><path d="m48.284 24a11.751 11.751 0 0 0 -11.284 11.881v4.119a2 2 0 0 1 -2 2 2 2 0 0 1 -2-2v-4.119a11.751 11.751 0 0 0 -11.285-11.881 11.5 11.5 0 0 0 -11.715 11.5v6.5a18 18 0 0 0 18 18h14a18 18 0 0 0 18-18v-6.5a11.5 11.5 0 0 0 -11.716-11.5z" fill="#fff" stroke="#4c241d" stroke-linecap="round" stroke-linejoin="round" stroke-width="2"/><path d="m40.234 30.651a6.8 6.8 0 0 0 -4.776 2.009 6.8 6.8 0 0 0 -4.777-2.009c-3.956 0-7.164 3.512-7.164 7.845s8.359 11.767 11.941 14.382c3.582-2.615 11.942-10.05 11.942-14.378s-3.209-7.849-7.166-7.849z" fill="#f53e28" stroke="#4c241d" stroke-linecap="round" stroke-linejoin="round" stroke-width="2"/></svg>